<?xml version="1.0" standalone="no"?>
<!DOCTYPE svg PUBLIC "-//W3C//DTD SVG 20010904//EN"
 "http://www.w3.org/TR/2001/REC-SVG-20010904/DTD/svg10.dtd">
<svg version="1.0" xmlns="http://www.w3.org/2000/svg"
 width="80.000000pt" height="80.000000pt" viewBox="0 0 80.000000 80.000000"
 preserveAspectRatio="xMidYMid meet">

<g transform="translate(0.000000,80.000000) scale(0.100000,-0.100000)"
fill="#33B786" stroke="none">
<path d="M572 787 c-46 -9 -122 -73 -122 -102 0 -13 -26 -15 -170 -15 l-170 0
0 -229 0 -230 -52 -3 -53 -3 0 -53 c1 -43 6 -57 28 -80 l27 -27 227 -3 c324
-4 313 -12 313 225 l0 162 38 7 c77 14 133 63 152 133 35 130 -81 246 -218
218z m90 -17 c46 -13 103 -76 112 -123 21 -111 -80 -212 -191 -191 -51 10
-108 64 -123 119 -11 39 -10 51 4 88 19 50 57 90 101 105 39 14 53 14 97 2z
m-222 -159 c0 -22 3 -46 6 -55 5 -14 -4 -16 -60 -16 -37 0 -66 -4 -66 -10 0
-6 30 -10 71 -10 63 0 73 -3 90 -24 11 -14 37 -33 59 -42 l40 -18 0 -167 0
-168 -26 -20 c-34 -26 -74 -27 -102 -1 -18 17 -27 43 -35 110 -2 12 -27 15
-145 18 l-142 3 0 219 0 220 155 0 155 0 0 -39z m-30 -472 c3 -26 12 -54 19
-63 12 -15 -2 -16 -167 -16 -99 0 -188 3 -197 6 -31 12 -59 97 -38 118 4 3 90
5 192 4 l186 -3 5 -46z"/>
<path d="M594 706 c-42 -47 -35 -77 22 -101 39 -16 43 -39 11 -59 -15 -9 -22
-7 -38 13 -19 23 -19 23 -19 2 0 -12 7 -24 15 -27 8 -4 15 -12 15 -20 0 -8 2
-14 5 -14 7 0 65 59 65 66 0 19 -26 46 -56 59 -39 16 -43 39 -11 59 15 9 22 7
37 -11 10 -13 21 -23 24 -23 14 0 4 21 -23 49 l-28 29 -19 -22z"/>
<path d="M210 541 c-11 -21 9 -51 34 -51 21 0 38 27 31 50 -8 26 -51 27 -65 1z
m50 -17 c0 -17 -26 -19 -36 -3 -7 12 15 31 28 23 4 -3 8 -12 8 -20z"/>
<path d="M211 431 c-13 -24 8 -55 34 -50 28 6 42 34 26 53 -18 22 -48 20 -60
-3z m49 -16 c0 -8 -6 -15 -14 -15 -17 0 -28 14 -19 24 12 12 33 6 33 -9z"/>
<path d="M368 413 c29 -2 74 -2 100 0 26 2 2 3 -53 3 -55 0 -76 -1 -47 -3z"/>
<path d="M216 325 c-19 -20 -20 -27 -4 -43 32 -32 84 0 61 37 -14 22 -38 25
-57 6z m44 -19 c0 -20 -19 -31 -32 -18 -6 6 -7 15 -4 21 10 16 36 13 36 -3z"/>
<path d="M320 300 c0 -6 36 -10 89 -10 50 0 93 5 96 10 4 6 -28 10 -89 10 -57
0 -96 -4 -96 -10z"/>
</g>
</svg>
