<?xml version="1.0" standalone="no"?>
<!DOCTYPE svg PUBLIC "-//W3C//DTD SVG 20010904//EN"
 "http://www.w3.org/TR/2001/REC-SVG-20010904/DTD/svg10.dtd">
<svg version="1.0" xmlns="http://www.w3.org/2000/svg"
 width="80.000000pt" height="80.000000pt" viewBox="0 0 80.000000 80.000000"
 preserveAspectRatio="xMidYMid meet">

<g transform="translate(0.000000,80.000000) scale(0.100000,-0.100000)"
fill="#33B786" stroke="none">
<path d="M138 693 c-9 -10 -19 -46 -23 -80 l-7 -63 -38 0 c-65 0 -70 -15 -70
-230 0 -152 3 -190 16 -208 15 -22 16 -22 324 -22 346 0 340 -1 340 71 0 35 3
39 24 39 29 0 54 22 61 53 2 12 9 87 15 167 6 80 13 157 16 171 3 16 -2 34
-14 49 -19 23 -31 25 -278 47 -323 28 -347 28 -366 6z m331 -27 c156 -13 288
-29 294 -35 7 -7 6 -61 -3 -178 -16 -208 -19 -217 -53 -221 l-27 -3 0 143 c0
79 -5 150 -10 158 -8 12 -53 16 -272 20 l-263 5 4 50 c4 55 15 85 34 85 7 0
140 -11 296 -24z m179 -148 c7 -7 12 -22 12 -35 l0 -23 -315 0 -315 0 0 29 c0
16 6 32 13 34 6 3 143 6 303 6 213 1 293 -2 302 -11z m7 -118 l0 -35 -312 -3
-313 -2 0 40 0 40 313 -2 312 -3 0 -35z m5 -164 c0 -75 -4 -107 -14 -115 -9
-8 -100 -11 -312 -9 l-299 3 -3 113 -3 112 316 0 315 0 0 -104z"/>
<path d="M434 277 c-3 -8 -4 -36 -2 -63 l3 -49 80 0 80 0 0 60 0 60 -78 3
c-59 2 -79 0 -83 -11z m146 -52 l0 -35 -65 0 -65 0 0 35 0 35 65 0 65 0 0 -35z"/>
</g>
</svg>
