<?xml version="1.0" standalone="no"?>
<!DOCTYPE svg PUBLIC "-//W3C//DTD SVG 20010904//EN"
 "http://www.w3.org/TR/2001/REC-SVG-20010904/DTD/svg10.dtd">
<svg version="1.0" xmlns="http://www.w3.org/2000/svg"
 width="80.000000pt" height="80.000000pt" viewBox="0 0 80.000000 80.000000"
 preserveAspectRatio="xMidYMid meet">

<g transform="translate(0.000000,80.000000) scale(0.100000,-0.100000)"
fill="#33B786" stroke="none">
<path d="M344 789 c-41 -12 -91 -69 -99 -113 -9 -46 8 -96 45 -131 41 -39 123
-47 173 -16 94 58 87 197 -13 249 -48 24 -58 25 -106 11z m133 -53 c64 -70 35
-180 -55 -207 -78 -23 -162 39 -162 118 0 119 138 176 217 89z"/>
<path d="M362 724 c-34 -32 -26 -64 18 -79 19 -6 36 -19 38 -28 5 -23 -36 -32
-57 -13 -24 22 -34 20 -21 -4 6 -11 17 -20 25 -20 7 0 15 -5 17 -12 5 -14 58
30 58 47 0 16 -31 42 -55 47 -24 4 -27 41 -4 46 9 2 24 -4 33 -13 12 -12 16
-13 16 -3 0 7 -10 22 -23 33 l-22 21 -23 -22z"/>
<path d="M119 534 c-7 -8 -37 -70 -66 -137 l-55 -122 22 -17 c35 -28 71 -34
86 -14 10 14 16 15 34 6 18 -10 21 -19 18 -68 -3 -51 -1 -58 20 -67 12 -5 22
-18 22 -27 0 -20 32 -40 53 -33 7 3 20 -1 27 -10 7 -8 23 -15 35 -15 12 0 28
-7 35 -15 8 -10 20 -13 29 -9 9 4 34 8 56 8 31 1 42 6 50 23 5 12 19 23 30 25
11 2 24 13 30 25 5 12 20 24 32 28 13 3 24 12 24 20 3 28 4 31 22 49 9 10 17
24 17 31 0 22 38 29 56 10 26 -26 112 11 99 43 -4 9 -25 64 -47 122 -59 156
-59 156 -118 125 -23 -12 -30 -22 -30 -45 0 -39 -31 -47 -95 -26 -25 9 -51 14
-56 10 -15 -9 -202 -12 -225 -4 -16 7 -20 15 -16 39 2 17 2 31 -1 31 -2 0 -20
7 -40 15 -31 13 -36 13 -48 -1z m51 -19 c34 -17 36 -4 -33 -160 -41 -94 -46
-100 -72 -98 -48 4 -49 16 -10 104 21 46 46 103 56 127 10 23 21 42 24 42 3 0
19 -7 35 -15z m557 -120 c24 -61 45 -117 48 -126 6 -19 -51 -48 -64 -33 -5 5
-28 59 -51 119 -23 61 -44 116 -47 122 -5 14 32 33 57 30 8 -1 32 -48 57 -112z
m-423 34 c82 2 83 -6 7 -64 l-53 -39 27 -23 c31 -27 62 -29 113 -7 20 8 49 16
63 16 35 1 159 -72 159 -95 0 -30 -27 -30 -76 -2 -25 15 -48 24 -51 21 -8 -7
-9 -6 50 -40 47 -27 60 -52 32 -63 -9 -3 -43 9 -76 27 -73 38 -91 34 -22 -6
54 -32 63 -41 56 -61 -8 -19 -33 -16 -82 12 -23 14 -49 25 -55 25 -7 0 -21 9
-31 20 -10 11 -26 20 -35 20 -10 0 -23 7 -30 15 -7 8 -18 15 -26 15 -7 0 -18
10 -25 21 -9 17 -17 20 -45 16 -24 -4 -34 -2 -34 7 0 7 -11 18 -24 24 l-25 11
37 81 c32 72 38 80 56 74 12 -4 52 -6 90 -5z m210 -5 c37 -13 53 -14 72 -5 27
12 25 16 74 -108 l19 -49 -22 -9 c-18 -8 -35 -2 -95 34 -81 47 -99 50 -162 28
-49 -17 -79 -19 -100 -5 -12 8 -6 18 34 52 50 45 103 78 122 78 6 0 32 -7 58
-16z m-288 -259 c-20 -37 -50 -46 -60 -19 -7 18 18 70 36 77 7 2 20 -2 28 -9
13 -12 12 -18 -4 -49z m70 4 c8 -14 -26 -87 -45 -94 -8 -3 -21 1 -29 9 -12 12
-11 19 9 55 22 40 50 53 65 30z m60 -30 c3 -6 -2 -29 -12 -50 -13 -30 -22 -39
-38 -37 -28 4 -30 26 -6 66 20 32 43 41 56 21z m61 -35 c8 -21 -23 -84 -41
-84 -32 0 -32 52 0 84 20 20 33 20 41 0z m47 -29 c18 -19 11 -45 -13 -45 -26
0 -31 9 -19 36 13 28 12 28 32 9z"/>
<path d="M140 480 c0 -5 5 -10 10 -10 6 0 10 5 10 10 0 6 -4 10 -10 10 -5 0
-10 -4 -10 -10z"/>
<path d="M650 470 c0 -5 5 -10 10 -10 6 0 10 5 10 10 0 6 -4 10 -10 10 -5 0
-10 -4 -10 -10z"/>
</g>
</svg>
