<?xml version="1.0" standalone="no"?>
<!DOCTYPE svg PUBLIC "-//W3C//DTD SVG 20010904//EN"
 "http://www.w3.org/TR/2001/REC-SVG-20010904/DTD/svg10.dtd">
<svg version="1.0" xmlns="http://www.w3.org/2000/svg"
 width="80.000000pt" height="80.000000pt" viewBox="0 0 80.000000 80.000000"
 preserveAspectRatio="xMidYMid meet">

<g transform="translate(0.000000,80.000000) scale(0.100000,-0.100000)"
fill="#33B786" stroke="none">
<path d="M360 782 c-14 -11 -40 -23 -58 -26 -43 -10 -49 -38 -27 -121 14 -52
15 -67 5 -80 -7 -8 -9 -22 -6 -31 4 -10 -9 -33 -38 -65 -41 -46 -62 -80 -85
-142 -10 -25 -14 -27 -70 -27 -73 0 -79 -8 -74 -100 7 -115 7 -125 -1 -141 -4
-10 -1 -23 10 -33 14 -15 33 -16 138 -12 156 7 136 7 394 0 167 -4 227 -3 237
6 12 10 15 39 15 130 0 65 -3 125 -6 134 -5 12 -21 16 -70 16 -53 0 -66 3 -71
18 -17 53 -50 107 -89 151 -29 32 -42 55 -38 65 3 9 1 23 -6 31 -10 12 -9 29
6 86 21 80 15 98 -33 114 -16 6 -36 15 -44 22 -28 23 -64 25 -89 5z m74 -15
c11 -8 20 -31 23 -60 7 -57 23 -62 23 -7 0 43 0 43 24 34 20 -8 20 -30 -1
-104 l-16 -60 -87 0 -87 0 -16 60 c-16 57 -22 100 -13 100 2 0 11 3 20 6 13 5
16 -2 16 -35 0 -56 16 -52 23 6 5 47 25 73 57 73 9 0 24 -6 34 -13z m76 -232
c0 -12 -19 -15 -110 -15 -91 0 -110 3 -110 15 0 12 19 15 110 15 91 0 110 -3
110 -15z m34 -85 c93 -99 122 -219 73 -305 -51 -90 -163 -138 -271 -115 -54
11 -54 11 -54 48 0 111 -7 194 -17 202 -6 5 -34 10 -63 12 l-52 3 29 60 c15
33 48 79 72 103 l43 42 97 0 96 0 47 -50z m-274 -195 c0 -13 -21 -15 -125 -15
-114 0 -137 5 -118 23 3 4 60 7 125 7 98 0 118 -3 118 -15z m449 -9 c7 -13 24
-29 37 -35 21 -9 24 -17 24 -64 0 -48 -3 -55 -25 -65 -14 -7 -30 -23 -37 -37
-11 -24 -15 -25 -105 -25 -51 0 -93 2 -93 4 0 2 16 14 35 26 54 33 96 101 102
165 5 48 9 55 28 55 13 0 27 -10 34 -24z m61 4 c0 -11 -7 -20 -15 -20 -8 0
-19 9 -25 20 -9 18 -8 20 15 20 18 0 25 -5 25 -20z m-515 -50 c0 -12 -21 -16
-114 -18 -111 -3 -141 4 -126 27 4 8 45 11 123 9 96 -2 117 -6 117 -18z m5
-55 c0 -13 -18 -15 -122 -13 -86 2 -123 7 -126 16 -3 9 26 12 122 12 106 0
126 -2 126 -15z m10 -50 c0 -12 -20 -15 -120 -15 -100 0 -120 3 -120 15 0 13
20 15 120 15 100 0 120 -2 120 -15z m500 -50 c0 -20 -5 -25 -25 -25 -29 0 -31
7 -8 32 22 25 33 23 33 -7z m-515 -5 c0 -12 -21 -16 -114 -18 -111 -3 -141 4
-126 27 4 8 45 11 123 9 96 -2 117 -6 117 -18z"/>
<path d="M368 371 c-36 -34 -37 -73 -3 -99 20 -16 25 -29 25 -62 0 -37 -2 -41
-15 -30 -8 7 -15 19 -15 26 0 8 -4 14 -10 14 -22 0 -8 -40 20 -60 28 -20 31
-20 55 -4 43 28 46 96 4 109 -15 5 -19 16 -19 51 0 50 15 58 31 17 7 -17 13
-23 16 -15 7 20 -3 38 -34 59 l-28 20 -27 -26z m22 -52 c0 -28 -4 -39 -12 -37
-24 8 -22 78 2 78 5 0 10 -18 10 -41z m48 -101 c2 -13 -4 -31 -12 -38 -14 -11
-16 -7 -16 30 0 46 23 53 28 8z"/>
<path d="M691 162 c-12 -23 4 -52 29 -52 25 0 41 30 29 53 -13 22 -46 22 -58
-1z m40 -17 c-1 -15 -24 -12 -29 3 -3 9 2 13 12 10 10 -1 17 -7 17 -13z"/>
</g>
</svg>
