<?xml version="1.0" standalone="no"?>
<!DOCTYPE svg PUBLIC "-//W3C//DTD SVG 20010904//EN"
 "http://www.w3.org/TR/2001/REC-SVG-20010904/DTD/svg10.dtd">
<svg version="1.0" xmlns="http://www.w3.org/2000/svg"
 width="80.000000pt" height="80.000000pt" viewBox="0 0 80.000000 80.000000"
 preserveAspectRatio="xMidYMid meet">

<g transform="translate(0.000000,80.000000) scale(0.100000,-0.100000)"
fill="#33B786" stroke="none">
<path d="M4 787 c-2 -7 -3 -116 -2 -242 l3 -230 168 -3 168 -2 -25 -31 c-58
-68 -58 -155 0 -218 49 -55 87 -62 299 -59 l180 3 0 185 0 185 -77 3 -78 3 0
54 c0 30 -4 55 -10 55 -5 0 -10 -25 -10 -55 l0 -55 -75 0 c-73 0 -75 -1 -75
-25 l0 -25 -220 0 -220 0 0 220 0 220 295 0 294 0 3 -77 c2 -43 6 -77 11 -75
4 1 7 4 7 7 0 3 0 43 0 90 l0 85 -315 0 c-246 0 -317 -3 -321 -13z m766 -467
l0 -30 -110 0 c-116 0 -170 15 -170 45 0 13 23 15 140 15 l140 0 0 -30z m-275
-30 c51 -25 75 -65 75 -125 0 -78 -57 -135 -135 -135 -78 0 -135 57 -135 135
0 60 24 100 75 125 50 25 68 25 120 0z m275 -55 l0 -35 -89 0 c-76 0 -89 3
-94 18 -2 9 -8 25 -12 35 -7 15 2 17 94 17 l101 0 0 -35z m0 -90 l0 -35 -83 0
c-46 0 -86 2 -89 5 -2 3 -3 18 0 35 l4 30 84 0 84 0 0 -35z m0 -85 l0 -30
-122 0 -122 0 29 30 c28 29 31 30 122 30 l93 0 0 -30z"/>
<path d="M411 236 c-30 -31 -24 -58 17 -75 34 -15 42 -35 17 -45 -8 -3 -24 4
-35 16 -20 21 -20 21 -20 2 0 -11 10 -30 23 -42 l23 -22 22 23 c33 35 29 65
-13 83 -38 15 -45 31 -19 41 10 4 22 -1 29 -10 15 -20 25 -22 25 -4 0 8 -10
23 -23 35 l-23 22 -23 -24z"/>
<path d="M100 560 l0 -140 225 0 c143 0 225 4 225 10 0 6 -78 10 -215 10
l-215 0 0 85 c0 47 3 85 7 85 4 0 17 -10 30 -22 l23 -22 45 44 45 44 55 -54
c51 -51 55 -53 73 -37 17 16 20 15 57 -23 36 -36 65 -51 65 -32 0 4 -23 29
-50 56 -49 48 -51 48 -70 31 -20 -18 -22 -18 -73 33 -29 29 -57 52 -63 52 -5
0 -28 -18 -49 -40 l-39 -40 -28 27 c-15 15 -28 37 -28 50 0 13 -4 23 -10 23
-6 0 -10 -53 -10 -140z"/>
<path d="M625 550 c3 -5 8 -10 11 -10 2 0 4 5 4 10 0 6 -5 10 -11 10 -5 0 -7
-4 -4 -10z"/>
</g>
</svg>
