<?xml version="1.0" standalone="no"?>
<!DOCTYPE svg PUBLIC "-//W3C//DTD SVG 20010904//EN"
 "http://www.w3.org/TR/2001/REC-SVG-20010904/DTD/svg10.dtd">
<svg version="1.0" xmlns="http://www.w3.org/2000/svg"
 width="80.000000pt" height="80.000000pt" viewBox="0 0 80.000000 80.000000"
 preserveAspectRatio="xMidYMid meet">

<g transform="translate(0.000000,80.000000) scale(0.100000,-0.100000)"
fill="#33B786" stroke="none">
<path d="M384 789 c-72 -21 -111 -100 -90 -184 8 -32 -18 -34 -49 -5 -23 22
-80 42 -89 32 -3 -3 -6 -27 -6 -54 0 -37 -6 -57 -25 -82 -13 -18 -34 -53 -45
-78 -16 -37 -26 -47 -48 -50 -26 -3 -27 -5 -27 -63 l0 -60 33 -3 c20 -2 36
-10 39 -20 12 -32 65 -100 88 -112 19 -10 25 -22 27 -59 l3 -46 65 0 c63 0 65
1 68 28 l3 27 94 0 94 0 3 -27 c3 -27 5 -28 71 -31 l67 -3 0 44 c0 39 4 47 41
77 57 46 94 126 93 205 -1 111 -84 219 -190 247 l-44 12 6 51 c7 67 -17 112
-76 143 -48 24 -58 25 -106 11z m91 -23 c49 -21 77 -70 72 -125 -13 -125 -185
-150 -233 -34 -34 81 20 162 114 172 7 0 28 -5 47 -13z m-245 -181 c14 -15 35
-25 51 -25 33 0 59 -9 59 -21 0 -5 -9 -9 -20 -9 -11 0 -20 -4 -20 -10 0 -6 50
-10 130 -10 80 0 130 4 130 10 0 6 -12 10 -26 10 -22 0 -25 2 -14 15 27 33
120 8 178 -48 55 -53 92 -148 77 -197 -9 -28 -55 -27 -55 0 0 11 -4 20 -10 20
-14 0 -13 -33 2 -48 7 -7 22 -12 35 -12 13 0 23 -2 23 -5 0 -22 -47 -89 -85
-123 -38 -33 -45 -45 -45 -76 l0 -36 -50 0 c-49 0 -50 1 -50 30 l0 31 -112 -3
-113 -3 -3 -27 c-3 -26 -6 -28 -53 -28 l-49 0 0 44 c0 35 -4 46 -19 51 -28 8
-77 67 -92 109 -10 28 -18 36 -43 38 -29 3 -31 6 -34 46 -3 41 -2 42 26 42 26
0 31 5 42 45 7 24 28 62 46 84 28 32 34 47 34 85 0 38 3 46 18 46 10 0 29 -11
42 -25z"/>
<path d="M375 705 c-22 -21 -33 -45 -21 -45 6 0 66 60 66 66 0 12 -24 1 -45
-21z"/>
<path d="M477 629 c-3 -11 -15 -23 -26 -26 -24 -6 -28 -23 -6 -23 17 0 55 39
55 57 0 21 -17 15 -23 -8z"/>
<path d="M182 408 c-21 -21 -15 -68 11 -77 44 -17 86 39 57 75 -15 17 -52 18
-68 2z m58 -32 c0 -28 -28 -42 -47 -23 -19 19 -5 47 23 47 19 0 24 -5 24 -24z"/>
<path d="M656 782 c-4 -12 -19 -29 -34 -37 l-27 -14 23 -7 c12 -4 28 -16 35
-29 l12 -22 32 33 c30 30 31 33 13 39 -11 4 -20 10 -20 14 0 4 -6 16 -14 26
-13 18 -14 18 -20 -3z m27 -39 c9 -9 -13 -34 -24 -27 -14 8 -11 34 4 34 8 0
17 -3 20 -7z"/>
</g>
</svg>
